<?xml version="1.0" encoding="utf-8"?>
<!-- Svg Vector Icons : http://www.onlinewebfonts.com/icon -->
<!DOCTYPE svg PUBLIC "-//W3C//DTD SVG 1.1//EN" "http://www.w3.org/Graphics/SVG/1.1/DTD/svg11.dtd">
<svg version="1.1" xmlns="http://www.w3.org/2000/svg" x="0px" y="0px" viewBox="0 0 1000 1000"
     enable-background="new 0 0 1000 1000" xml:space="preserve">
<metadata> Svg Vector Icons : http://www.onlinewebfonts.com/icon </metadata>
<g><g transform="translate(0.000000,511.000000) scale(0.100000,-0.100000)"><path d="M3637.1,4267.1c-643.2-116.4-1078.2-496.2-1253.8-1094.5c-36.8-126.6-44.9-218.5-53.1-577.9c-10.2-414.5-12.2-430.9-57.2-465.6c-81.7-63.3-116.4-189.9-116.4-414.5c0-220.5,34.7-385.9,118.4-575.9c59.2-134.8,189.9-334.9,285.9-435c42.9-44.9,89.8-134.8,130.7-249.1c228.7-631,767.8-1059.8,1337.5-1059.8c545.2,0,1074.1,402.3,1311,998.5c96,245,96,245,212.4,381.9c118.4,140.9,269.5,434.9,314.5,612.6c34.7,140.9,40.8,473.8,8.2,590.1c-12.3,42.9-44.9,102.1-75.6,132.7c-51,51-53.1,59.2-55.1,349.2c-6.1,449.2-81.7,735.1-243,912.8c-40.8,44.9-73.5,96-73.5,112.3c0,16.3-20.4,85.8-42.9,157.2c-104.2,308.3-459.5,530.9-996.5,624.9C4182.3,4303.8,3837.2,4303.8,3637.1,4267.1z"/><path d="M6881.9-1079c-698.4-698.4-1270.1-1280.4-1270.1-1290.6c0-32.7,1682.6-1705.1,1715.3-1705.1c16.3,0,602.4,571.8,1302.8,1272.2L9900-1532.3V-693c0,622.8-6.1,843.4-24.5,861.7c-18.4,18.4-241,24.5-874,24.5h-847.5L6881.9-1079z M8241.9-889.1c61.3-57.2,75.6-126.6,38.8-196c-44.9-81.7-1505-1531.5-1560.1-1549.9c-102.1-28.6-230.7,93.9-204.2,196c8.2,28.6,345.1,381.9,784.2,820.9c675.9,673.9,780.1,769.8,835.2,769.8C8170.4-848.2,8217.4-866.6,8241.9-889.1z M8797.3-1440.4c26.5-26.5,40.8-67.4,40.8-116.4c0-73.5-32.7-108.2-771.9-847.4c-712.7-714.7-776-771.9-841.3-771.9c-96,0-163.4,67.4-163.4,161.3c0,69.4,44.9,118.4,771.9,843.4c739.2,739.2,773.9,771.9,847.4,771.9C8729.9-1399.6,8770.8-1413.9,8797.3-1440.4z"/><path d="M2456.8-166.2C1378.6-605.2,1082.5-760.4,810.9-1030c-373.7-371.6-655.5-1065.9-704.5-1727.6c-12.3-175.6-10.2-185.8,34.7-226.7c110.3-100.1,741.3-283.8,1274.2-373.7c678-114.3,1337.5-165.4,2307.5-179.7c943.4-14.3,1792.9,24.5,2446.3,110.3l100.1,12.2l-420.6,420.7c-428.8,428.8-481.9,502.3-481.9,643.2c0,102.1,83.7,198.1,833.1,955.7l661.6,667.7L6694-644c-230.7,116.4-469.7,220.5-939.3,412.5L5356.5-70.2l-49-67.4c-108.2-145-373.7-385.9-526.9-475.8c-87.8-51-232.8-118.4-322.6-147c-142.9-49-196-55.1-428.8-57.2c-298.1,0-434.9,32.7-682,167.5c-226.7,120.5-494.2,355.3-608.5,530.9c-18.4,26.5-36.8,47-44.9,44.9C2687.6-74.3,2581.4-117.2,2456.8-166.2z"/></g></g>
</svg>