<?xml version="1.0" encoding="utf-8"?>
<!-- Svg Vector Icons : http://www.onlinewebfonts.com/icon -->
<!DOCTYPE svg PUBLIC "-//W3C//DTD SVG 1.1//EN" "http://www.w3.org/Graphics/SVG/1.1/DTD/svg11.dtd">
<svg version="1.1" xmlns="http://www.w3.org/2000/svg" xmlns:xlink="http://www.w3.org/1999/xlink" fill="gray" height="130px" width="130px" x="0px" y="0px" viewBox="0 0 1000 1000" enable-background="new 0 0 1000 1000" xml:space="preserve">
<metadata> Svg Vector Icons : http://www.onlinewebfonts.com/icon </metadata>
<g><g transform="translate(0.000000,414.000000) scale(0.100000,-0.100000)"><path d="M4775.1,4028.1c-660.6-75.8-1186.2-329.1-1626.6-786.1c-513.8-535.1-760-1188.6-722.1-1920.2C2487.9,123.7,3371-877.8,4547.8-1083.8c1527.2-267.5,2945.4,859.5,3025.9,2405.6c28.4,563.5-118.4,1098.6-435.7,1576.9c-130.2,196.5-454.6,528-658.2,667.7C5985,3909.7,5319.6,4089.6,4775.1,4028.1z"/><path d="M3127.1-1836.7c-942.3-824-1378-1420.6-1652.6-2258.8c-137.3-416.7-239.1-1048.9-239.1-1468V-5760H5000h3764.6v161c0,478.3-104.2,1101-260.4,1555.6c-314.9,913.9-786.1,1510.6-1988.9,2514.5c-30.8,23.7-73.4,14.2-248.6-61.6C5835.8-1775.2,5449.9-1858,5000-1858c-511.4,0-833.4,78.1-1458.5,350.4C3527.3-1500.5,3342.6-1649.7,3127.1-1836.7z"/></g></g>
</svg>