<?xml version="1.0" encoding="utf-8"?>
<!-- Svg Vector Icons : http://www.onlinewebfonts.com/icon -->
<!DOCTYPE svg PUBLIC "-//W3C//DTD SVG 1.1//EN" "http://www.w3.org/Graphics/SVG/1.1/DTD/svg11.dtd">
<svg version="1.1" xmlns="http://www.w3.org/2000/svg" fill="#686868" width="18px" height="18px" x="0px" y="0px"
     viewBox="0 0 1000 1000" enable-background="new 0 0 1000 1000" xml:space="preserve">
<metadata> Svg Vector Icons : http://www.onlinewebfonts.com/icon </metadata>
<g><path d="M355.9,471.2C165.6,471.2,10,586.5,10,730.6c0,51.9,23.1,103.8,57.6,144.1h576.5c34.6-40.4,57.6-92.2,57.6-144.1C701.8,586.5,546.1,471.2,355.9,471.2z M528.8,298.2c0-98-74.9-172.9-172.9-172.9c-98,0-172.9,74.9-172.9,172.9c0,98,74.9,172.9,172.9,172.9C453.9,471.2,528.8,396.2,528.8,298.2z M753.6,701.8H990v-57.6H736.4C747.9,661.4,753.6,684.5,753.6,701.8z M736.4,817.1H990v-57.6H753.6C753.6,782.5,747.9,799.8,736.4,817.1z M707.5,586.5H990v-57.6H649.9C672.9,546.1,696,569.2,707.5,586.5z M586.5,298.2c0,23.1-5.8,40.4-11.5,57.6H990v-57.6H586.5z M523.1,453.9l46.1,17.3H990v-57.6H557.6C540.4,442.4,523.1,453.9,523.1,453.9z"/></g>
</svg>