<?xml version="1.0" encoding="utf-8"?>
<!-- Svg Vector Icons : http://www.onlinewebfonts.com/icon -->
<!DOCTYPE svg PUBLIC "-//W3C//DTD SVG 1.1//EN" "http://www.w3.org/Graphics/SVG/1.1/DTD/svg11.dtd">
<svg version="1.1" xmlns="http://www.w3.org/2000/svg" fill="midnightblue" height="28px" width="28px" x="0px" y="0px"
     viewBox="0 0 1000 1000" enable-background="new 0 0 1000 1000" xml:space="preserve">
<metadata> Svg Vector Icons : http://www.onlinewebfonts.com/icon </metadata>
<g><g transform="matrix(1 0 0 -1 0 1638)"><path d="M809.5,648.3c-3.7,0-7.2,0.8-10.6,2.3c-3.4,1.5-6.4,3.6-9.1,6.3L500.3,995.4L210.1,656.9c-3.4-4-7.6-6.7-12.8-8.1c-5.2-1.3-10.3-1-15.4,1c-5,1.7-9.2,4.8-12.3,9.3s-4.8,9.5-4.8,14.9v928.3c0,7.1,2.5,13.1,7.6,18.1c5,5,11.1,7.6,18.1,7.6h619c7.1,0,13.1-2.5,18.1-7.6c5-5,7.6-11.1,7.6-18.1V674c0-5.4-1.5-10.3-4.5-14.9s-7.1-7.6-12.1-9.3c-1.3-0.7-2.8-1.1-4.3-1.3C812.8,648.4,811.2,648.3,809.5,648.3L809.5,648.3z M500.3,1060.8c3.7,0,7.2-0.8,10.6-2.5c3.4-1.7,6.4-3.9,9.1-6.5l263.9-308.3v833.1H216.7V743.5l263.9,308.3c2.4,2.7,5.3,4.9,8.8,6.5C492.9,1060,496.6,1060.8,500.3,1060.8L500.3,1060.8z"/></g></g>
</svg>