<?xml version="1.0" encoding="utf-8"?>
<!-- Svg Vector Icons : http://www.onlinewebfonts.com/icon -->
<!DOCTYPE svg PUBLIC "-//W3C//DTD SVG 1.1//EN" "http://www.w3.org/Graphics/SVG/1.1/DTD/svg11.dtd">
<svg version="1.1" xmlns="http://www.w3.org/2000/svg" fill="gray" height="20px" width="20px" x="0px" y="0px"
     viewBox="0 0 1000 1000" enable-background="new 0 0 1000 1000" xml:space="preserve">
<metadata> Svg Vector Icons : http://www.onlinewebfonts.com/icon </metadata>
<g><path d="M268.6,851.5c0-36.4-0.1-72.9,0.1-109.3c0-6.6-1-9.6-8.9-11.9c-41.8-12.5-80.7-31.1-114.8-59.2c-40.7-33.5-73.2-73.4-96-120.9c-18-37.6-31.2-76.8-34.8-118.7c-1.6-18.7-4.9-37.4-4.1-56C12.4,322,22,270.1,44.9,220.8c21.2-45.6,49.8-85.3,86.7-119c41.7-38.2,90.9-63.2,146-75.3c23.5-5.1,48.1-6.8,72.2-7c95.2-0.8,190.4-0.2,285.5-0.4c40.5-0.1,80.8,2.7,119.2,16c35.9,12.5,68.8,30.5,99.2,54.1c31,24.1,56,53,77,85.3c25.7,39.7,42.7,83.2,52.1,129.8c7.5,36.9,8.9,74.3,5.9,111.3c-3.5,42.8-14.5,84.3-32.6,123.9c-20.4,44.6-47.7,84.3-83.8,117c-39,35.3-83.6,61.5-135.5,74.5c-32.3,8.1-65,10.9-98.1,10.9c-20.8,0-41.7-0.5-62.4,0.3c-6.4,0.3-13.8,2.8-18.6,6.9c-22.2,18.8-43.4,38.8-65.2,57.9c-33.9,29.8-68.3,59.2-102.2,89c-22.4,19.7-44.3,39.9-66.6,59.7c-8.2,7.3-16.2,15.2-25.5,20.8c-16.1,9.8-29.3,1.7-29.4-17C268.6,923.6,268.6,887.6,268.6,851.5L268.6,851.5z M306.5,918.2c16.2-14.1,30.3-26.2,44.2-38.5c21.5-19,42.7-38.4,64.2-57.4c37.2-32.9,74.8-65.2,111.6-98.6c16.2-14.7,32.8-23.7,55.9-22.2c30.4,1.9,61,1.1,91.4,0.2c14.5-0.4,29.2-2.5,43.4-5.6c26-5.8,50.5-15.4,73.8-28.6c35.4-20.1,65.7-46,90.2-78c22.3-29.2,39.5-61.5,51.4-96.9c11.4-34,17.9-68.7,18.1-104.1c0.1-27.6-3.6-55.6-8.6-82.9c-11.1-59.4-39-111-79.7-155.4c-23.9-26.1-52-47-84.1-62.7C746.1,71.9,712.7,60,677.1,59.7c-112.6-1-225.3-0.2-338-0.5c-27.8-0.1-54.4,4.9-80.7,13.2c-52.4,16.4-94.9,47.8-129.8,88.8c-17.5,20.6-32,44.4-44.7,68.4c-16,30.3-24.8,63.2-30.1,97.4c-6.2,39.9-6,79.5,1.2,118.6c8.9,47.9,27.1,92.6,55.6,132.8c23,32.5,50.9,59.7,84.3,81c29.1,18.5,60.6,31.5,94.6,38.2c10.7,2.1,16.8,10.2,16.9,21.3c0.1,15.6,0,31.2,0,46.8C306.5,815.5,306.5,865.3,306.5,918.2L306.5,918.2z"/><path d="M507.2,378.4c75.1,0,150.2,0.2,225.2-0.2c10.8-0.1,17.1,5.2,19.8,13.8c2.9,9.1-1,17.3-9.8,22c-2.7,1.5-6.2,2.2-9.3,2.2c-150.5,0.1-301.1,0.1-451.6,0.1c-11.2,0-19.5-8.1-19.6-18.6c-0.1-12.5,6.7-19.2,20.1-19.2C357,378.4,432.1,378.4,507.2,378.4L507.2,378.4z"/><path d="M507.1,282.4c-74.4,0-148.7,0-223.1,0c-15,0-21.9-5.7-22.1-18.3c-0.2-11.9,8.4-19.6,22.4-19.6c148.7,0,297.4,0,446.2,0c13.7,0,22.2,7.8,22.3,20c0,12-7.4,17.9-22.5,17.9C655.8,282.4,581.5,282.4,507.1,282.4z"/><path d="M392.9,550.1c-35.7,0-71.3,0.1-107,0c-17-0.1-27.5-11.5-23.6-25.2c2.7-9.4,12.2-14.8,26.6-14.8c65.8,0,131.5-0.1,197.3,0.1c6.1,0,12.4,0.7,18.4,2c11.5,2.5,19,10.8,18.3,19.1c-1,11.3-9.8,18.7-22.9,18.8C464.2,550.2,428.5,550.1,392.9,550.1L392.9,550.1z"/></g>
</svg>