<?xml version="1.0" encoding="utf-8"?>
<!-- Svg Vector Icons : http://www.onlinewebfonts.com/icon -->
<!DOCTYPE svg PUBLIC "-//W3C//DTD SVG 1.1//EN" "http://www.w3.org/Graphics/SVG/1.1/DTD/svg11.dtd">
<svg version="1.1" xmlns="http://www.w3.org/2000/svg" fill="#686868" width="18px" height="18px" x="0px" y="0px"
     viewBox="0 0 1000 1000" enable-background="new 0 0 1000 1000" xml:space="preserve">
<metadata> Svg Vector Icons : http://www.onlinewebfonts.com/icon </metadata>
<g><path d="M473.5,417.6c0,30.9-25.1,56-56,56H66c-30.9,0-56-25.1-56-56V69.2c0-30.9,25.1-56,56-56h351.4c30.9,0,56,25.1,56,56V417.6L473.5,417.6z M473.5,930.8c0,30.9-25.1,56-56,56H66c-30.9,0-56-25.1-56-56V582.4c0-30.9,25.1-56,56-56h351.4c30.9,0,56,25.1,56,56V930.8L473.5,930.8z M990,930.8c0,30.9-25.1,56-56,56H582.6c-30.9,0-56-25.1-56-56V582.4c0-30.9,25.1-56,56-56H934c30.9,0,56,25.1,56,56L990,930.8L990,930.8z M907.8,477H607.9c-44.9,0-81.4-36.5-81.4-81.4V98.3c0-44.9,36.5-81.4,81.4-81.4h299.9c44.9,0,81.4,36.5,81.4,81.4v297.3C989.3,440.5,952.7,477,907.8,477L907.8,477z M607.9,84.1c-7.8,0-14.2,6.4-14.2,14.2v297.3c0,7.8,6.4,14.2,14.2,14.2h299.9c7.8,0,14.2-6.4,14.2-14.2V98.3c0-7.8-6.4-14.2-14.2-14.2H607.9L607.9,84.1z"/></g>
</svg>