<?xml version="1.0" encoding="utf-8"?>
<!-- Svg Vector Icons : http://www.onlinewebfonts.com/icon -->
<!DOCTYPE svg PUBLIC "-//W3C//DTD SVG 1.1//EN" "http://www.w3.org/Graphics/SVG/1.1/DTD/svg11.dtd">
<svg version="1.1" xmlns="http://www.w3.org/2000/svg" fill="midnightblue" height="28px" width="28px" x="0px" y="0px"
     viewBox="0 0 1000 1000" enable-background="new 0 0 1000 1000" xml:space="preserve">
<metadata> Svg Vector Icons : http://www.onlinewebfonts.com/icon </metadata>
<g><path d="M647.7,793.5c-12.1-28.9-51.9-78.4-118.4-147c-17.7-18.3-16.6-32.4-10.3-74.3l0.7-4.7c4.3-28.7,11.5-45.6,109.5-60.9c49.8-7.8,62.9,11.8,81,38.9c2,3,4,6,6.1,8.9c17.2,24.8,30,30.5,49.3,39.1c8.6,3.9,19.4,8.7,33.9,16.8c34.3,19.3,34.3,41,34.3,88.7v5.4c0,76.2-28.5,117.5-39.6,130.7c-42.5,36-91.7,64.4-145.8,83C675.3,868.9,654.8,810.5,647.7,793.5L647.7,793.5z M500,57.1c69.9,0,136.1,15.7,195.2,43.7c-32.5,20.2-79.1,51.8-98.3,77.7c-7.1,9.6-13.2,18.7-18.9,27c-18.7,27.8-27.8,40.2-45.1,42.3c-8.6,1-20.1,0.3-32.2-0.5c-32.7-2.1-77.3-4.9-91.6,33.3c-9.1,24.2-10.7,89.9,18.7,124c4.7,5.4,5.6,15.5,2.4,26.8c-4.2,14.9-12.7,23.9-15.3,25.8c-5.1-2.9-15.2-14.4-22-22.3c-16.5-18.8-37.1-42.3-63.7-49.6c-9.7-2.6-20.3-4.8-30.6-6.9c-28.9-5.9-61.5-12.7-69.1-28.7c-5.5-11.7-5.5-27.8-5.5-44.7c0-21.5,0-45.9-10.7-69.5c-9.3-20.6-25.7-31.7-42.9-37.1C252.6,111.5,369.9,57.1,500,57.1L500,57.1z M10,500c0,265.9,219.4,481.5,490,481.5c270.6,0,490-215.6,490-481.5c0-265.9-219.4-481.5-490-481.5C229.4,18.5,10,234.1,10,500L10,500z"/></g>
</svg>