<?xml version="1.0" encoding="utf-8"?>
<!-- Svg Vector Icons : http://www.onlinewebfonts.com/icon -->
<!DOCTYPE svg PUBLIC "-//W3C//DTD SVG 1.1//EN" "http://www.w3.org/Graphics/SVG/1.1/DTD/svg11.dtd">
<svg version="1.1" xmlns="http://www.w3.org/2000/svg" xmlns:xlink="http://www.w3.org/1999/xlink" fill="gray" height="50px" width="50px" x="0px" y="0px" viewBox="0 0 1000 1000" enable-background="new 0 0 1000 1000" xml:space="preserve">
<metadata> Svg Vector Icons : http://www.onlinewebfonts.com/icon </metadata>
<g><path d="M334.9,77c40.1-39.6,95.7-59.7,151-65.4c13.7-2.3,27.7-2,41.5,0c20.7,3.6,41.8,9.4,58.8,22.3c4.5,4.1,10.9,3.1,16.5,3.3c34.7,0,70.3,11.7,95.3,36.4c29.9,29.1,44.8,69.9,53.7,109.9c18,87.6,14.1,177.5,15.4,266.3c0,30.4,0.8,60.9,5.4,91c2.6,19.5,7.4,40.4,21.8,54.9c-1,17.3-18.2,25.9-31.7,32.8c-45.8,20.5-96.2,27.1-145.6,33.1c0.9,10.4,0,21.1,2.3,31.3c11.5,28.9,39.2,46.6,65.6,60.6c64.9,32.3,137.6,49.7,196,94.3c11.6,10,23.8,19.7,33.4,31.9c25.7,30.8,39.2,70.6,40.8,110.4c-303.3-0.6-606.6-0.1-909.9-0.3c2.2-42.2,17.2-84.2,45.9-115.6c19.6-20.8,42.8-38,68-51.4c34.2-19.1,71.3-32,107.3-47c30-12.2,60.5-24.6,86.1-44.8c11.2-8.3,20.6-19.1,27-31.5c6.6-11.6,4.1-25.6,5.9-38.3c-48-6-97-12.8-141.4-33c-12.8-6.7-28.4-14.8-30.8-30.8c20.1-23.2,22.5-55.1,26.3-84.1c5.7-69.3,2.9-139.1,9.8-208.3c1.5-24.4,5.9-48.5,9.8-72.6C270.4,175.3,292.4,118,334.9,77z"/></g>
</svg>