<?xml version="1.0" encoding="utf-8"?>
<!-- Svg Vector Icons : http://www.onlinewebfonts.com/icon -->
<!DOCTYPE svg PUBLIC "-//W3C//DTD SVG 1.1//EN" "http://www.w3.org/Graphics/SVG/1.1/DTD/svg11.dtd">
<svg version="1.1" xmlns="http://www.w3.org/2000/svg" xmlns:xlink="http://www.w3.org/1999/xlink" fill="midnightblue" height="28px" width="28px" x="0px" y="0px" viewBox="0 0 1000 1000" enable-background="new 0 0 1000 1000" xml:space="preserve">
<metadata> Svg Vector Icons : http://www.onlinewebfonts.com/icon </metadata>
<g><path d="M978.1,492L529.2,40.1c0,0-0.1-0.1-0.1-0.1c0,0-0.1-0.1-0.1-0.1l-0.5-0.6c-15.9-16-41.7-16-57.6,0c-2.1,2.1-3.8,4.3-5.3,6.7L21.9,492.6c-15.9,16-15.9,42.1,0,58.1c9.6,9.7,22.8,13.4,35.2,11.4l69.4-0.2c34.5,1.6,44.9,8.8,47.9,38.8l0.2,242.9v0.1l0.1,50.3c1.9,43.7,37.3,78.7,81.1,78.7h40.7h40.7c44.9,0,81.4-36.8,81.4-82.2v-43.7h0.3l-0.1-77.6c2.3-33.3,11.2-41.1,45.9-42.9l78.1-0.1c26.2,2.4,35.6,10.5,38.8,36.4l0.2,131.1c1.7,43.8,37.2,78.9,81.1,78.9h40.7h40.7c44.9,0,81.4-36.8,81.4-82.2v-43.7h0.3l-0.3-285.7c0-22.7-18.2-41.1-40.7-41.1c-22.5,0-40.7,18.4-40.7,41.1l0.3,279.7c-1.2,36.6-7.5,46.8-40,49.6c-42.3-2.8-41.3-16.3-41.3-81.4l-0.1,4.1l-0.1-42h-0.2v-43.7c0-45.4-36.4-82.2-81.4-82.2l-40.7-1.1l-80.3,0.1l-41.8,1c-44.7,0-80.9,36.4-81.3,81.4l0.2,103.1c-0.3,46.9-4.5,57.9-41.7,60.5c-28.1-2.2-36.9-9.8-39.6-36l-0.2-247.5h-0.1v-43.7c0-45.4-36.5-82.2-81.4-82.2l-17.9-1.1l-6.6,0l350.3-352.7l420.2,423c15.9,16,41.7,16,57.6,0C994,534.1,994,508,978.1,492z"/></g>
</svg>