<?xml version="1.0" encoding="utf-8"?>
<!-- Svg Vector Icons : http://www.onlinewebfonts.com/icon -->
<!DOCTYPE svg PUBLIC "-//W3C//DTD SVG 1.1//EN" "http://www.w3.org/Graphics/SVG/1.1/DTD/svg11.dtd">
<svg version="1.1" xmlns="http://www.w3.org/2000/svg" xmlns:xlink="http://www.w3.org/1999/xlink" fill="gray" height="18px" width="20px" x="0px" y="0px" viewBox="0 0 1000 1000" enable-background="new 0 0 1000 1000" xml:space="preserve">
<metadata> Svg Vector Icons : http://www.onlinewebfonts.com/icon </metadata>
<g><path d="M499.7,256.3C372.9-40.3,5.8,47.3,10,373.2C8.8,546.6,181.6,632.9,296.9,708.6C408.5,781.9,488,882.2,500.5,924.9c10.7-41.8,99.2-145,202.6-218.4c113.1-80.3,288-162,286.8-335.4C997.1,46.3,620.7-28.5,499.7,256.3z M677.3,648.3c-89.8,59.5-166.7,121.2-175.9,155.1c-10.8-34.6-79.8-94.1-176.8-153.5c-100-61.2-246.3-140.2-245.2-293.4c31.1-287.1,311.2-234.6,421.3,5.8c105.1-230.8,385.7-292.9,421.7-7.4C923.6,508.1,775.5,583.3,677.3,648.3z"/></g>
</svg>