<?xml version="1.0" encoding="utf-8"?>
<!-- Svg Vector Icons : http://www.onlinewebfonts.com/icon -->
<!DOCTYPE svg PUBLIC "-//W3C//DTD SVG 1.1//EN" "http://www.w3.org/Graphics/SVG/1.1/DTD/svg11.dtd">
<svg version="1.1" xmlns="http://www.w3.org/2000/svg" xmlns:xlink="http://www.w3.org/1999/xlink" fill="midnightblue" height="28px" width="28px" x="0px" y="0px" viewBox="0 0 1000 1000" enable-background="new 0 0 1000 1000" xml:space="preserve">
<metadata> Svg Vector Icons : http://www.onlinewebfonts.com/icon </metadata>
<g><path d="M500,10C229.4,10,10,229.4,10,500s219.4,490,490,490s490-219.4,490-490S770.6,10,500,10z M500,867.5c-202.9,0-367.5-164.6-367.5-367.5c0-202.9,164.6-367.5,367.5-367.5c202.9,0,367.5,164.6,367.5,367.5C867.5,702.9,702.9,867.5,500,867.5z"/><path d="M255,500c0,33.8,27.4,61.3,61.3,61.3c33.8,0,61.3-27.4,61.3-61.3s-27.4-61.3-61.3-61.3C282.4,438.8,255,466.2,255,500z"/><path d="M438.8,500c0,33.8,27.4,61.3,61.3,61.3c33.8,0,61.3-27.4,61.3-61.3s-27.4-61.3-61.3-61.3C466.2,438.8,438.8,466.2,438.8,500z"/><path d="M622.5,500c0,33.8,27.4,61.3,61.3,61.3S745,533.8,745,500s-27.4-61.3-61.3-61.3S622.5,466.2,622.5,500z"/></g>
</svg>