<?xml version="1.0" encoding="utf-8"?>
<!-- Svg Vector Icons : http://www.onlinewebfonts.com/icon -->
<!DOCTYPE svg PUBLIC "-//W3C//DTD SVG 1.1//EN" "http://www.w3.org/Graphics/SVG/1.1/DTD/svg11.dtd">
<svg version="1.1" xmlns="http://www.w3.org/2000/svg" xmlns:xlink="http://www.w3.org/1999/xlink" fill="gray" height="22px" width="22px" x="0px" y="0px" viewBox="0 0 1000 1000" enable-background="new 0 0 1000 1000" xml:space="preserve">
<metadata> Svg Vector Icons : http://www.onlinewebfonts.com/icon </metadata>
<g><path d="M227.4,616.7l17.1,19c59.9-55.9,110-94.3,173.9-123.8c119.9-55.3,242.7-72,305.6-77.1l19,121.7l0.2,0.1c2.7,17.2,18.7,28.9,35.6,26.2c14.3-2.3,24.3-14.4,25.5-28.4L990,322.5L742.9,163.9c-5.8-12-18.5-19.6-32.3-17.3c-16.9,2.7-28.5,18.9-25.8,36.1c1,6.4,4.3,11.6,8.3,16l-5.2,4.9l6.8,43.5c-29.1,2.7-59.1,5.6-83.9,13.3C397.3,326.1,277.2,517.2,227.4,616.7z M772,799.4H118.9V200.7H391V91.8H91.7c-45.1,0-81.7,36.6-81.7,81.6v653.1c0,45.1,36.5,81.6,81.7,81.6h707.5c45.1,0,81.7-36.6,81.7-81.6V663.3H772V799.4L772,799.4z"/></g>
</svg>