<?xml version="1.0" encoding="utf-8"?>
<!-- Svg Vector Icons : http://www.onlinewebfonts.com/icon -->
<!DOCTYPE svg PUBLIC "-//W3C//DTD SVG 1.1//EN" "http://www.w3.org/Graphics/SVG/1.1/DTD/svg11.dtd">
<svg version="1.1" xmlns="http://www.w3.org/2000/svg" fill="white" xmlns:xlink="http://www.w3.org/1999/xlink" x="0px" y="0px" viewBox="0 0 1000 1000" enable-background="new 0 0 1000 1000" xml:space="preserve">
<metadata> Svg Vector Icons : http://www.onlinewebfonts.com/icon </metadata>
<g><path d="M616,861.7c0,12.9-10.4,23.3-23.2,23.3H407.2c-12.8,0-23.2-10.5-23.2-23.3c0-12.9,10.4-23.3,23.2-23.3h185.7C605.6,838.3,616,848.8,616,861.7L616,861.7z M592.8,896.7H407.2c-15.3,0-27.1,14.8-22,30.9c3.1,9.7,12.8,15.7,23,15.7h0.3c13.4,0,25.7,7.6,31.7,19.7l0.2,0.5c8.1,16.2,24.6,26.5,42.7,26.5h33.9c18.1,0,34.6-10.3,42.7-26.5l0.2-0.5c6-12,18.3-19.7,31.7-19.7h0.3c10.1,0,19.9-6,23-15.7C619.9,911.5,608.1,896.7,592.8,896.7L592.8,896.7z M500,150c12.8,0,23.2-10.5,23.2-23.3V33.3c0-12.9-10.4-23.3-23.2-23.3c-12.8,0-23.2,10.5-23.2,23.3v93.3C476.8,139.5,487.2,150,500,150L500,150z M253.9,238.8c4.5,4.6,10.5,6.8,16.4,6.8c5.9,0,11.9-2.3,16.4-6.8c9.1-9.1,9.1-23.9,0-33l-65.6-66c-9.1-9.1-23.8-9.1-32.8,0c-9.1,9.1-9.1,23.9,0,33L253.9,238.8L253.9,238.8z M198.3,453.3c0-12.9-10.4-23.3-23.2-23.3H82.3c-12.8,0-23.2,10.5-23.2,23.3c0,12.9,10.4,23.3,23.2,23.3h92.8C187.9,476.7,198.3,466.2,198.3,453.3L198.3,453.3z M253.9,667.8l-65.6,66c-9.1,9.1-9.1,23.9,0,33c4.5,4.6,10.5,6.8,16.4,6.8s11.9-2.3,16.4-6.8l65.6-66c9.1-9.1,9.1-23.9,0-33C277.6,658.7,262.9,658.7,253.9,667.8L253.9,667.8z M746.1,667.8c-9.1-9.1-23.8-9.1-32.8,0c-9.1,9.1-9.1,23.9,0,33l65.6,66c4.5,4.6,10.5,6.8,16.4,6.8c5.9,0,11.9-2.3,16.4-6.8c9.1-9.1,9.1-23.9,0-33L746.1,667.8L746.1,667.8z M917.7,430h-92.8c-12.8,0-23.2,10.5-23.2,23.3c0,12.9,10.4,23.3,23.2,23.3h92.8c12.8,0,23.2-10.5,23.2-23.3C940.9,440.5,930.5,430,917.7,430L917.7,430z M729.7,245.7c5.9,0,11.9-2.3,16.4-6.8l65.6-66c9.1-9.1,9.1-23.9,0-33s-23.8-9.1-32.8,0l-65.6,66c-9.1,9.1-9.1,23.9,0,33C717.9,243.4,723.8,245.7,729.7,245.7L729.7,245.7z M616,803.3c0,12.9-10.4,23.3-23.2,23.3H407.2c-12.8,0-23.2-10.5-23.2-23.3c0-12.4,9.7-22.5,21.9-23.2C391.4,648.8,256.3,619.6,256.3,465c0-135.3,109.1-245,243.7-245c134.6,0,243.7,109.7,243.7,245c0,154.6-135.1,183.8-149.5,315.1C606.3,780.8,616,790.9,616,803.3L616,803.3z M446.5,285.5c-3.6-8.9-13.7-13.3-22.7-9.6C364.5,300,319.6,351.6,303.6,414c-2.4,9.4,3.2,18.9,12.5,21.3c1.5,0.4,2.9,0.6,4.4,0.6c7.8,0,14.8-5.2,16.8-13.1c13.3-51.7,50.5-94.5,99.6-114.5C445.8,304.6,450.1,294.4,446.5,285.5L446.5,285.5z"/></g>
</svg>