<?xml version="1.0" encoding="utf-8"?>
<!-- Svg Vector Icons : http://www.onlinewebfonts.com/icon -->
<!DOCTYPE svg PUBLIC "-//W3C//DTD SVG 1.1//EN" "http://www.w3.org/Graphics/SVG/1.1/DTD/svg11.dtd">
<svg version="1.1" xmlns="http://www.w3.org/2000/svg" fill="darkgray" height="12px" width="18x" x="0px" y="0px"
     viewBox="0 0 1000 1000" enable-background="new 0 0 1000 1000" xml:space="preserve">
<metadata> Svg Vector Icons : http://www.onlinewebfonts.com/icon </metadata>
<g><g transform="translate(0.000000,350.000000) scale(0.100000,-0.100000)"><path d="M9403.6,1819.8c-57.7-30.7-887.9-882.2-2771.5-2840.7C5152.2-2558.5,3895.2-3863.5,3839.5-3919.2L3737.6-4023L2182.7-2660.3C1237.1-1832,601-1288,562.5-1274.6c-165.3,57.7-355.6-17.3-436.3-173c-36.5-69.2-34.6-234.5,3.8-315.2c21.1-44.2,445.9-428.6,1320.4-1193.6C2159.7-3579,2930.4-4253.7,3161-4455.5c453.6-399.8,495.9-424.7,665-399.8c71.1,11.5,107.6,32.7,209.5,130.7c313.3,301.8,5819.7,6035,5840.9,6081.1c32.7,73,30.8,246-1.9,309.4c-57.7,111.5-197.9,196-324.8,196C9515.1,1862.1,9449.8,1842.9,9403.6,1819.8z"/></g></g>
</svg>