<?xml version="1.0" encoding="utf-8"?>
<!-- Svg Vector Icons : http://www.onlinewebfonts.com/icon -->
<!DOCTYPE svg PUBLIC "-//W3C//DTD SVG 1.1//EN" "http://www.w3.org/Graphics/SVG/1.1/DTD/svg11.dtd">
<svg version="1.1" xmlns="http://www.w3.org/2000/svg" fill="red" height="18px" width="20px" x="0px" y="0px"
     viewBox="0 0 1000 1000" enable-background="new 0 0 1000 1000" xml:space="preserve">
<metadata> Svg Vector Icons : http://www.onlinewebfonts.com/icon </metadata>
<g><path d="M499.8,305.5L499.8,305.5c0-63.8,23.7-127.4,72-175.7C619.4,81.3,682,57.1,745.1,57.1l0,0c62.3,0,125.3,24.2,173.2,72.6c47.6,48.3,71.7,111.9,71.7,175.7v5c0,150.7-61,239.5-145.2,323.7c-107.7,108-247,161.9-345.1,308.7c-102-153.6-232.7-198.9-357.4-324C63,539.6,10,448.4,10,305.5l0,0c0-63.8,23.8-127.4,71.6-175.7c47.6-48.5,110.6-72.6,172.9-72.6l0,0c63.2,0,125.7,24.2,173.7,72.6C476.1,178.1,499.8,241.7,499.8,305.5L499.8,305.5z"/></g>
</svg>