<?xml version="1.0" encoding="utf-8"?>
<!-- Svg Vector Icons : http://www.onlinewebfonts.com/icon -->
<!DOCTYPE svg PUBLIC "-//W3C//DTD SVG 1.1//EN" "http://www.w3.org/Graphics/SVG/1.1/DTD/svg11.dtd">
<svg version="1.1" xmlns="http://www.w3.org/2000/svg" xmlns:xlink="http://www.w3.org/1999/xlink" x="0px" fill="midnightblue" width="25" height="25" y="0px" viewBox="0 0 1000 1000" enable-background="new 0 0 1000 1000" xml:space="preserve">
<metadata> Svg Vector Icons : http://www.onlinewebfonts.com/icon </metadata>
<g><g><path d="M953.4,113.8H46.6c-20.2,0-36.6,16.4-36.6,36.6v699.1c0,20.2,16.4,36.6,36.6,36.6h906.7c20.2,0,36.6-16.4,36.6-36.6V150.4C990,130.2,973.6,113.8,953.4,113.8z M907.6,750.3c0,20.2-16.4,36.6-36.6,36.6H205.4c-20.2,0-36.6-16.4-36.6-36.6V249.7c0-20.2,16.4-36.6,36.6-36.6H871c20.2,0,36.6,16.4,36.6,36.6L907.6,750.3L907.6,750.3z"/><path d="M257.3,738.9h552.6c20.2,0,32.4-15.8,27.1-35.4l-87.8-326.1c-5.3-19.5-14-31.6-19.5-27c-5.5,4.6-15.4,23.9-22.1,42.9L635.9,596c-6.7,19.1-21.7,21.2-33.4,4.7l-62.9-88.4c-11.7-16.5-31.1-16.7-43.2-0.6l-67.4,89.6c-12.2,16.2-34.2,18.3-49.2,4.8l-21.9-19.7c-15-13.5-35.9-10.6-46.5,6.6L240,707.8C229.3,725,237,738.9,257.3,738.9z"/><circle cx="394.7" cy="406.1" r="51.9"/></g><g></g><g></g><g></g><g></g><g></g><g></g><g></g><g></g><g></g><g></g><g></g><g></g><g></g><g></g><g></g></g>
</svg>