<?xml version="1.0" encoding="utf-8"?>
<!-- Svg Vector Icons : http://www.onlinewebfonts.com/icon -->
<!DOCTYPE svg PUBLIC "-//W3C//DTD SVG 1.1//EN" "http://www.w3.org/Graphics/SVG/1.1/DTD/svg11.dtd">
<svg version="1.1" xmlns="http://www.w3.org/2000/svg" fill="midnightblue" width="20" height="20" x="0px" y="0px"
     viewBox="0 0 1000 1000" enable-background="new 0 0 1000 1000" xml:space="preserve">
<metadata> Svg Vector Icons : http://www.onlinewebfonts.com/icon </metadata>
<g><path d="M924.5,386.3V255.1l-113.7-65.7L745.1,75.8H613.8L500,10.1L386.4,75.8H255l-65.6,113.6L75.6,255.1v131.3L10,500l65.6,113.7v131.2l113.7,65.6L255,924.2h131.4L500,989.9l113.8-65.7h131.4l65.6-113.7l113.7-65.6V613.7L990,500L924.5,386.3z M775.3,372h-39.7L557.2,728.8h-99.1L279.7,372H240v-39.6h119l148.7,297.4l148.7-297.4h119L775.3,372L775.3,372z"/><path d="M680.9,629"/></g>
</svg>